<?xml version="1.0" encoding="UTF-8"?>
<svg id="Calque_2" data-name="Calque 2" xmlns="http://www.w3.org/2000/svg" viewBox="0 0 200 200">
  <defs>
    <style>
      .cls-1 {
        fill: none;
        stroke: #929292;
        stroke-linecap: round;
        stroke-miterlimit: 10;
        stroke-width: 8px;
      }
    </style>
  </defs>
  <g id="Touch_ID" data-name="Touch ID">
    <g id="Large">
      <g>
        <path class="cls-1" d="m7.88,72.91c-2.52,8.59-3.88,17.68-3.88,27.09,0,10.61,1.72,20.82,4.9,30.37"/>
        <path class="cls-1" d="m98.92,4C61.42,4.41,29.07,26.34,13.64,58.02"/>
        <path class="cls-1" d="m196,97.26c-1.31-46.71-36.05-85.1-81.12-92.11"/>
        <path class="cls-1" d="m94.34,181.99c-1.91,5.3-3.84,9.81-5.49,13.35"/>
        <path class="cls-1" d="m100,100s6.27,25.34,1.6,54.17c-.7,4.35-1.59,8.52-2.58,12.46"/>
        <path class="cls-1" d="m118.36,148.71c-.21,1.82-.46,3.64-.75,5.46-2.91,17.96-8.02,33.13-11.45,41.83"/>
        <path class="cls-1" d="m72.34,191.93c4.52-8.88,10.05-22.12,12.75-37.67,3.98-22.99.53-43.98-.84-51.43-.16-.92-.25-1.86-.25-2.83,0-8.84,7.16-16,16-16,7.59,0,13.94,5.28,15.58,12.36,0,0,3.73,16.18,3.67,36.39"/>
        <path class="cls-1" d="m182.83,128.75c.12,6.37.04,13.25-.36,20.44"/>
        <path class="cls-1" d="m68.62,26.39c9.64-4.11,20.25-6.39,31.38-6.39,40.39,0,73.9,30.11,79.34,69,0,0,1.73,9.29,2.77,23.74"/>
        <path class="cls-1" d="m19.7,152.63c.96-2.44,1.79-5.04,2.42-7.75,2.31-9.93.38-23.94-1.02-31.54-.73-4.34-1.11-8.79-1.11-13.33,0-27.37,13.74-51.52,34.7-65.95"/>
        <path class="cls-1" d="m115.92,38c-5.09-1.3-10.43-2-15.92-2-35.35,0-64,28.65-64,64,0,3.32.25,6.57.74,9.76,1.52,8.36,3.5,22.55.86,36.91-1.39,7.57-3.91,14.34-6.69,20.03"/>
        <path class="cls-1" d="m163.81,171.69c.57-3.32,1.09-6.76,1.53-10.28,4.66-36.94-2.06-71.05-2.06-71.05-3.04-20.08-15.4-37.11-32.54-46.51"/>
        <path class="cls-1" d="m145.52,84.73c.61,1.82,1.11,3.68,1.5,5.59,1.87,9.77,5.87,33.99,3.24,60.84-1.26,12.89-3.63,24.53-6.12,34.09"/>
        <path class="cls-1" d="m54.33,142.02c1.98-18.27-1.41-32.64-1.41-32.64-.6-3.04-.92-6.17-.92-9.38,0-26.51,21.49-48,48-48,15.4,0,29.11,7.25,37.89,18.54"/>
        <path class="cls-1" d="m43.41,177.62c2.89-5.61,5.78-12.34,7.9-19.86"/>
        <path class="cls-1" d="m88.99,69.95c3.43-1.26,7.14-1.95,11.01-1.95,15.45,0,28.34,10.85,31.34,25.41,1.71,8.19,5.79,31.74,2.88,58.05-1.85,16.7-5.83,31.16-9.28,41.32"/>
        <path class="cls-1" d="m57.44,186.1c4.76-9.08,9.68-20.98,11.76-34.1,3.13-19.79.78-37.51-.7-46.25-.36-1.91-.5-3.73-.5-5.75,0-8.08,3-15.46,7.93-21.09"/>
      </g>
    </g>
  </g>
</svg>