
<svg xmlns="http://www.w3.org/2000/svg" viewBox="0 0 126.29 32.92">
  <defs>
    <style>
      .cls-1 {
        fill: #fff;
        stroke-width: 0px;
      }
    </style>
  </defs>
  <g>
    <path class="cls-1" d="m20.48,7.83h2v13.92h6v2h-8V7.83Zm14.23,0c3.31,0,6,2.69,6,6s-2.69,6-6,6-6-2.69-6-6,2.69-6,6-6Zm0,10c2.21,0,4-1.79,4-4s-1.79-4-4-4-4,1.79-4,4c.01,2.2,1.8,3.98,4,3.98v.02Zm-4,3.94h8v2h-8v-2Zm25.6,2h-2v-1.43c-1.29.9-2.83,1.39-4.4,1.39-4.42.03-8.02-3.53-8.05-7.95s3.53-8.02,7.95-8.05c2.34-.02,4.58,1,6.11,2.77l-1.47,1.31c-2.21-2.47-6-2.68-8.47-.47-2.47,2.21-2.68,6-.47,8.47,1.14,1.28,2.77,2,4.48,2,1.68,0,3.28-.73,4.38-2h-5.4v-2h7.37l-.02,5.96Zm7.36-15.9c3.31,0,6,2.69,6,6s-2.69,6-6,6-6-2.69-6-6c-.02-3.31,2.65-6.02,5.96-6.04.02,0,.04,0,.06,0l-.02.04Zm0,10c2.21,0,4-1.79,4-4s-1.79-4-4-4-4,1.79-4,4c.03,2.19,1.83,3.95,4.02,3.94l-.02.06Zm-4,3.94h8v2h-8v-2Zm12.13-13.98h2v15.9h-2V7.83Zm4.77,0h2c.1-.01.21-.01.31,0,3.29-.36,6.25,2.02,6.61,5.32.36,3.29-2.02,6.25-5.32,6.61-.43.05-.86.05-1.29,0h-.31v4h-2V7.83Zm2,2v7.91h.31c2.19.29,4.2-1.25,4.49-3.44.29-2.19-1.25-4.2-3.44-4.49-.35-.05-.71-.05-1.06,0-.11.01-.22.03-.32.07v-.05Zm14.41-.85l-1.48,1.17c-.74-.77-1.97-.8-2.74-.06-.33.32-.54.74-.59,1.19v.16c0,.88.61,1.47,1.8,1.55,4.58.28,6.68,2.43,6.68,5.27v.18c-.34,3.24-3.24,5.59-6.48,5.25-1.41-.15-2.72-.8-3.69-1.83l1.53-1.18c.72.77,1.74,1.19,2.8,1.14,2,.11,3.73-1.39,3.92-3.38v-.14c0-2.67-2.62-3.16-4.89-3.38-2.1-.2-3.61-1.51-3.61-3.4v-.08c.15-2.04,1.88-3.61,3.93-3.56,1.06-.03,2.08.39,2.81,1.15v-.05Zm11.5,12.72c2.49,0,4.46-2.69,4.46-6V7.7h2v8c0,4.4-2.88,7.95-6.42,7.95s-6.42-3.55-6.42-7.95V7.7h2v8c-.08,3.36,1.89,6.05,4.37,6.05v-.05Zm21.81,2h-2v-9.9l-4.61,6-4.61-6v9.93h-2V7.83l6.6,8.69,6.6-8.69.02,15.87Z"/>
    <path class="cls-1" d="m10.88,5.44c0-3-2.44-5.44-5.44-5.44S0,2.44,0,5.44v16.45l4.48,3.21v7.82h1.92v-7.82l4.48-3.21V5.44Zm-1.92,9.2l-2.56,2.56v-2.4l2.56-2.56v2.4Zm-7-2.4l2.56,2.56v2.4l-2.56-2.56v-2.4Zm7-2.72l-3.52,3.52-3.52-3.6v-2.4l3.52,3.52,3.52-3.52v2.48ZM5.44,1.92c1.59,0,2.98,1.07,3.4,2.61l-3.4,3.39-3.4-3.39c.4-1.55,1.8-2.64,3.4-2.65v.04ZM1.92,20.92v-3.6l2.56,2.56v2.86l-2.56-1.82Zm4.48,1.83v-2.87l2.56-2.56v3.59l-2.56,1.84Z"/>
  </g>
</svg>